<svg width="144" height="32" viewBox="0 0 144 32" fill="none" xmlns="http://www.w3.org/2000/svg">
<path fill-rule="evenodd" clip-rule="evenodd" d="M0.225708 19.5932C1.79454 19.1526 2.95411 17.6949 2.95411 16C2.95411 14.3051 1.79454 12.8475 0.225708 12.4068C1.31707 13.2203 2.03327 14.5424 2.03327 16C2.03327 17.4576 1.31707 18.7797 0.225708 19.5932ZM1.5558 21.4915C1.31707 21.4915 1.11244 21.4915 0.873703 21.4576C3.6021 21.1187 5.75072 18.8136 5.75072 16C5.75072 13.1864 3.63621 10.8814 0.873703 10.5424C1.11244 10.5085 1.31707 10.5085 1.5558 10.5085C4.62525 10.5085 7.11492 12.9831 7.11492 16.0339C7.11492 19.0509 4.62525 21.4915 1.5558 21.4915ZM3.49979 24.7119C3.12463 24.7119 2.78358 24.678 2.44253 24.6441C6.77387 24.1017 10.1162 20.4407 10.1162 16C10.1162 11.5593 6.77387 7.89831 2.44253 7.35594C2.78358 7.32204 3.15874 7.28814 3.49979 7.28814C8.3427 7.28814 12.2648 11.1864 12.2648 16C12.2648 20.8136 8.3427 24.7119 3.49979 24.7119Z" fill="#C4CDD9"/>
<path fill-rule="evenodd" clip-rule="evenodd" d="M15.9481 32C24.8495 32 32.0457 24.8475 32.0457 16C32.0457 7.15254 24.8154 0 15.9481 0C15.266 0 14.618 0.0338983 13.97 0.135593C21.9165 1.11864 28.0895 7.83051 28.0895 16C28.0895 24.1695 21.9165 30.9153 13.97 31.8644C14.618 31.9661 15.266 32 15.9481 32ZM6.2964 27.6949C5.81893 27.6949 5.34146 27.661 4.86399 27.5932C10.6959 26.8814 15.1978 21.9661 15.1978 16C15.1978 10.0339 10.6959 5.08475 4.86399 4.40678C5.34146 4.33898 5.81893 4.30509 6.2964 4.30509C12.8105 4.30509 18.0626 9.55932 18.0626 16C18.0626 22.4407 12.8105 27.6949 6.2964 27.6949ZM10.2526 30.3051C9.6728 30.3051 9.05891 30.2712 8.47913 30.2034C15.573 29.322 21.098 23.322 21.098 16C21.098 8.71187 15.6071 2.67797 8.47913 1.79661C9.05891 1.72881 9.6728 1.69492 10.2526 1.69492C18.1991 1.69492 24.6449 8.1017 24.6449 16C24.6449 23.8983 18.1991 30.3051 10.2526 30.3051Z" fill="#C4CDD9"/>
<path d="M65.763 27.2L65.731 13.76L59.139 24.832H56.803L50.243 14.048V27.2H45.379V4.8H49.667L58.051 18.72L66.307 4.8H70.563L70.627 27.2H65.763Z" fill="white"/>
<path d="M83.3015 27.584C81.5308 27.584 79.8135 27.3493 78.1495 26.88C76.5068 26.3893 75.1842 25.76 74.1815 24.992L75.9415 21.088C76.9015 21.792 78.0428 22.3573 79.3655 22.784C80.6882 23.2107 82.0108 23.424 83.3335 23.424C84.8055 23.424 85.8935 23.2107 86.5975 22.784C87.3015 22.336 87.6535 21.7493 87.6535 21.024C87.6535 20.4907 87.4402 20.0533 87.0135 19.712C86.6082 19.3493 86.0748 19.0613 85.4135 18.848C84.7735 18.6347 83.8988 18.4 82.7895 18.144C81.0828 17.7387 79.6855 17.3333 78.5975 16.928C77.5095 16.5227 76.5708 15.872 75.7815 14.976C75.0135 14.08 74.6295 12.8853 74.6295 11.392C74.6295 10.0907 74.9815 8.91734 75.6855 7.872C76.3895 6.80533 77.4455 5.96267 78.8535 5.344C80.2828 4.72533 82.0215 4.416 84.0695 4.416C85.4988 4.416 86.8962 4.58667 88.2615 4.928C89.6268 5.26934 90.8215 5.76 91.8455 6.4L90.2455 10.336C88.1762 9.16267 86.1068 8.576 84.0375 8.576C82.5868 8.576 81.5095 8.81067 80.8055 9.28C80.1228 9.74933 79.7815 10.368 79.7815 11.136C79.7815 11.904 80.1762 12.48 80.9655 12.864C81.7762 13.2267 83.0028 13.5893 84.6455 13.952C86.3522 14.3573 87.7495 14.7627 88.8375 15.168C89.9255 15.5733 90.8535 16.2133 91.6215 17.088C92.4108 17.9627 92.8055 19.1467 92.8055 20.64C92.8055 21.92 92.4428 23.0933 91.7175 24.16C91.0135 25.2053 89.9468 26.0373 88.5175 26.656C87.0882 27.2747 85.3495 27.584 83.3015 27.584Z" fill="white"/>
<path d="M116.732 27.2L116.7 13.76L110.108 24.832H107.772L101.212 14.048V27.2H96.3478V4.8H100.636L109.02 18.72L117.276 4.8H121.532L121.596 27.2H116.732Z" fill="#C4CDD9"/>
<path d="M134.27 27.584C132.5 27.584 130.782 27.3493 129.118 26.88C127.476 26.3893 126.153 25.76 125.15 24.992L126.91 21.088C127.87 21.792 129.012 22.3573 130.334 22.784C131.657 23.2107 132.98 23.424 134.302 23.424C135.774 23.424 136.862 23.2107 137.566 22.784C138.27 22.336 138.622 21.7493 138.622 21.024C138.622 20.4907 138.409 20.0533 137.982 19.712C137.577 19.3493 137.044 19.0613 136.382 18.848C135.742 18.6347 134.868 18.4 133.758 18.144C132.052 17.7387 130.654 17.3333 129.566 16.928C128.478 16.5227 127.54 15.872 126.75 14.976C125.982 14.08 125.598 12.8853 125.598 11.392C125.598 10.0907 125.95 8.91734 126.654 7.872C127.358 6.80533 128.414 5.96267 129.822 5.344C131.252 4.72533 132.99 4.416 135.038 4.416C136.468 4.416 137.865 4.58667 139.23 4.928C140.596 5.26934 141.79 5.76 142.814 6.4L141.214 10.336C139.145 9.16267 137.076 8.576 135.006 8.576C133.556 8.576 132.478 8.81067 131.774 9.28C131.092 9.74933 130.75 10.368 130.75 11.136C130.75 11.904 131.145 12.48 131.934 12.864C132.745 13.2267 133.972 13.5893 135.614 13.952C137.321 14.3573 138.718 14.7627 139.806 15.168C140.894 15.5733 141.822 16.2133 142.59 17.088C143.38 17.9627 143.774 19.1467 143.774 20.64C143.774 21.92 143.412 23.0933 142.686 24.16C141.982 25.2053 140.916 26.0373 139.486 26.656C138.057 27.2747 136.318 27.584 134.27 27.584Z" fill="#C4CDD9"/>
</svg>
