<svg width="108" height="24" viewBox="0 0 108 24" fill="none" xmlns="http://www.w3.org/2000/svg">
<path fill-rule="evenodd" clip-rule="evenodd" d="M0.169312 14.6949C1.34593 14.3644 2.21561 13.2712 2.21561 12C2.21561 10.7288 1.34593 9.6356 0.169312 9.30509C0.987832 9.91526 1.52499 10.9068 1.52499 12C1.52499 13.0932 0.987832 14.0848 0.169312 14.6949ZM1.16688 16.1187C0.987832 16.1187 0.834359 16.1187 0.655308 16.0932C2.70161 15.839 4.31307 14.1102 4.31307 12C4.31307 9.88984 2.72719 8.16102 0.655308 7.90679C0.834359 7.88136 0.987832 7.88136 1.16688 7.88136C3.46897 7.88136 5.33622 9.73729 5.33622 12.0254C5.33622 14.2881 3.46897 16.1187 1.16688 16.1187ZM2.62487 18.5339C2.34351 18.5339 2.08772 18.5085 1.83193 18.4831C5.08043 18.0763 7.58715 15.3305 7.58715 12C7.58715 8.6695 5.08043 5.92373 1.83193 5.51695C2.08772 5.49153 2.36908 5.46611 2.62487 5.46611C6.25705 5.46611 9.19861 8.38984 9.19861 12C9.19861 15.6102 6.25705 18.5339 2.62487 18.5339Z" fill="#C4CDD9"/>
<path fill-rule="evenodd" clip-rule="evenodd" d="M11.9611 24C18.6372 24 24.0343 18.6356 24.0343 12C24.0343 5.36441 18.6116 0 11.9611 0C11.4495 0 10.9636 0.0254237 10.4776 0.101695C16.4374 0.838983 21.0672 5.87288 21.0672 12C21.0672 18.1271 16.4374 23.1864 10.4776 23.8983C10.9636 23.9746 11.4495 24 11.9611 24ZM4.72233 20.7712C4.36423 20.7712 4.00613 20.7458 3.64803 20.6949C8.02199 20.161 11.3984 16.4746 11.3984 12C11.3984 7.52542 8.02199 3.81356 3.64803 3.30508C4.00613 3.25424 4.36423 3.22881 4.72233 3.22881C9.60788 3.22881 13.547 7.16949 13.547 12C13.547 16.8305 9.60788 20.7712 4.72233 20.7712ZM7.68947 22.7288C7.25463 22.7288 6.79421 22.7034 6.35938 22.6525C11.6798 21.9915 15.8235 17.4915 15.8235 12C15.8235 6.5339 11.7053 2.00847 6.35938 1.34746C6.79421 1.29661 7.25463 1.27119 7.68947 1.27119C13.6493 1.27119 18.4837 6.07627 18.4837 12C18.4837 17.9237 13.6493 22.7288 7.68947 22.7288Z" fill="#C4CDD9"/>
<path d="M49.3223 20.4L49.2983 10.32L44.3543 18.624H42.6023L37.6823 10.536V20.4H34.0343V3.6H37.2503L43.5383 14.04L49.7303 3.6H52.9223L52.9703 20.4H49.3223Z" fill="white"/>
<path d="M62.4762 20.688C61.1482 20.688 59.8602 20.512 58.6122 20.16C57.3802 19.792 56.3882 19.32 55.6362 18.744L56.9562 15.816C57.6762 16.344 58.5322 16.768 59.5242 17.088C60.5162 17.408 61.5082 17.568 62.5002 17.568C63.6042 17.568 64.4202 17.408 64.9482 17.088C65.4762 16.752 65.7402 16.312 65.7402 15.768C65.7402 15.368 65.5802 15.04 65.2602 14.784C64.9562 14.512 64.5562 14.296 64.0602 14.136C63.5802 13.976 62.9242 13.8 62.0922 13.608C60.8122 13.304 59.7642 13 58.9482 12.696C58.1322 12.392 57.4282 11.904 56.8362 11.232C56.2602 10.56 55.9722 9.664 55.9722 8.544C55.9722 7.568 56.2362 6.688 56.7642 5.904C57.2922 5.104 58.0842 4.472 59.1402 4.008C60.2122 3.544 61.5162 3.312 63.0522 3.312C64.1242 3.312 65.1722 3.44 66.1962 3.696C67.2202 3.952 68.1162 4.32 68.8842 4.8L67.6842 7.752C66.1322 6.872 64.5802 6.432 63.0282 6.432C61.9402 6.432 61.1322 6.608 60.6042 6.96C60.0922 7.312 59.8362 7.776 59.8362 8.352C59.8362 8.928 60.1322 9.36 60.7242 9.648C61.3322 9.92 62.2522 10.192 63.4842 10.464C64.7642 10.768 65.8122 11.072 66.6282 11.376C67.4442 11.68 68.1402 12.16 68.7162 12.816C69.3082 13.472 69.6042 14.36 69.6042 15.48C69.6042 16.44 69.3322 17.32 68.7882 18.12C68.2602 18.904 67.4602 19.528 66.3882 19.992C65.3162 20.456 64.0122 20.688 62.4762 20.688Z" fill="white"/>
<path d="M87.5489 20.4L87.5249 10.32L82.5809 18.624H80.8289L75.9089 10.536V20.4H72.2609V3.6H75.4769L81.7649 14.04L87.9569 3.6H91.1489L91.1969 20.4H87.5489Z" fill="#C4CDD9"/>
<path d="M100.703 20.688C99.3747 20.688 98.0867 20.512 96.8387 20.16C95.6067 19.792 94.6147 19.32 93.8627 18.744L95.1827 15.816C95.9027 16.344 96.7587 16.768 97.7507 17.088C98.7427 17.408 99.7347 17.568 100.727 17.568C101.831 17.568 102.647 17.408 103.175 17.088C103.703 16.752 103.967 16.312 103.967 15.768C103.967 15.368 103.807 15.04 103.487 14.784C103.183 14.512 102.783 14.296 102.287 14.136C101.807 13.976 101.151 13.8 100.319 13.608C99.0387 13.304 97.9907 13 97.1747 12.696C96.3587 12.392 95.6547 11.904 95.0627 11.232C94.4867 10.56 94.1987 9.664 94.1987 8.544C94.1987 7.568 94.4627 6.688 94.9907 5.904C95.5187 5.104 96.3107 4.472 97.3667 4.008C98.4387 3.544 99.7427 3.312 101.279 3.312C102.351 3.312 103.399 3.44 104.423 3.696C105.447 3.952 106.343 4.32 107.111 4.8L105.911 7.752C104.359 6.872 102.807 6.432 101.255 6.432C100.167 6.432 99.3587 6.608 98.8307 6.96C98.3187 7.312 98.0627 7.776 98.0627 8.352C98.0627 8.928 98.3587 9.36 98.9507 9.648C99.5587 9.92 100.479 10.192 101.711 10.464C102.991 10.768 104.039 11.072 104.855 11.376C105.671 11.68 106.367 12.16 106.943 12.816C107.535 13.472 107.831 14.36 107.831 15.48C107.831 16.44 107.559 17.32 107.015 18.12C106.487 18.904 105.687 19.528 104.615 19.992C103.543 20.456 102.239 20.688 100.703 20.688Z" fill="#C4CDD9"/>
</svg>
